<svg xmlns="http://www.w3.org/2000/svg" viewBox="0 0 65.42 92.34"><defs><style>.cls-1{fill:#0c73b8;}</style></defs><g id="Livello_2" data-name="Livello 2"><g id="Capa_1" data-name="Capa 1"><path id="path2999" class="cls-1" d="M15.4,0h9.92V4.15H19.54V8.3h5.78v4.14H15.4Z"/><path id="path3001" class="cls-1" d="M27.3,0h9.92V3.61H31.45v.72h5.77v8.29H27.3V8.84h5.77V8.12H27.3Z"/><path id="path3003" class="cls-1" d="M39.2,0h9.92V3.61H43.35v.72h5.77v8.29H39.2V8.84H45V8.12H39.2Z"/><path class="cls-1" d="M0,18.15,6,84.92l26.72,7.42,26.79-7.43,6-66.76ZM51.72,48.37l-.2,2.2L49.59,72.13l-.12,1.39L32.71,78.16h0L15.9,73.52,14.75,60.66H23l.58,6.53,9.12,2.46h0l9.14-2.47,1-10.62H14.38l-.73-8.19H43.48L44.22,40H12.92l-.75-8.19h41Z"/></g></g></svg>