<?xml version="1.0" encoding="utf-8"?>
<!-- Generator: Adobe Illustrator 25.0.0, SVG Export Plug-In . SVG Version: 6.00 Build 0)  -->
<svg version="1.1" id="Livello_1" xmlns="http://www.w3.org/2000/svg" xmlns:xlink="http://www.w3.org/1999/xlink" x="0px" y="0px"
	 viewBox="0 0 90 90" style="enable-background:new 0 0 90 90;" xml:space="preserve">
<style type="text/css">
	.st0{fill:#0A3069;}
</style>
<path class="st0" d="M45,0.1c-24.8,0-44.9,20.6-44.9,46c0,20.4,12.9,37.6,30.7,43.7c2.2,0.4,3.1-1,3.1-2.2c0-1.1-0.1-4.7-0.1-8.6
	c-11.3,2.1-14.2-2.8-15.1-5.4c-0.5-1.3-2.7-5.4-4.6-6.5c-1.6-0.9-3.8-3-0.1-3.1c3.5-0.1,6.1,3.3,6.9,4.7c4,7,10.5,5,13.1,3.8
	c0.4-3,1.6-5,2.9-6.2c-10-1.2-20.4-5.1-20.4-22.7c0-5,1.7-9.2,4.6-12.4c-0.4-1.2-2-5.9,0.4-12.2c0,0,3.8-1.2,12.4,4.7
	c3.6-1,7.4-1.6,11.2-1.6s7.6,0.5,11.2,1.6c8.6-6,12.4-4.7,12.4-4.7c2.5,6.3,0.9,11.1,0.4,12.2c2.9,3.2,4.6,7.3,4.6,12.4
	c0,17.7-10.5,21.6-20.5,22.7c1.6,1.4,3,4.2,3,8.5c0,6.2-0.1,11.1-0.1,12.7c0,1.2,0.8,2.6,3.1,2.2C77.5,83.4,89.8,65.8,89.8,46
	C89.9,20.7,69.8,0.1,45,0.1z"/>
</svg>
