<?xml version="1.0" encoding="utf-8"?>
<!-- Generator: Adobe Illustrator 25.0.0, SVG Export Plug-In . SVG Version: 6.00 Build 0)  -->
<svg version="1.1" id="Livello_1" xmlns="http://www.w3.org/2000/svg" xmlns:xlink="http://www.w3.org/1999/xlink" x="0px" y="0px"
	 viewBox="0 0 50 50" style="enable-background:new 0 0 50 50;" xml:space="preserve">
<style type="text/css">
	.st0{fill:#F16528;}
</style>
<g id="Camada_x0020_1">
	<g id="XMLID_1_">
		<g>
			<path class="st0" d="M41.5,4.5L41.5,4.5L39,40.2c0,0.3-0.2,0.6-0.5,0.6l-12.7,5c-0.1,0-0.3,0-0.4,0c-4.2-1.6-8.5-3.3-12.7-5
				c-0.3-0.1-0.4-0.3-0.4-0.6L9.9,4.6c0-0.4,0.2-0.8,0.6-0.8h30.4C41.2,3.8,41.5,4.1,41.5,4.5z M35.3,15.9v-4.3
				c0-0.4-0.3-0.7-0.6-0.7h-18c-0.3,0-0.6,0.3-0.6,0.7v0.1l0.6,13.5c0,0.4,0.3,0.7,0.6,0.7h12L29,30.7l-3.3,1.6l-3.3-1.2v-1.7
				c0-0.4-0.3-0.7-0.6-0.7h-3.7c-0.3,0-0.6,0.3-0.6,0.7v5.3c0,0.3,0.2,0.6,0.5,0.7l7.8,2.8c0.2,0.1,0.3,0,0.5,0l7.2-3.4
				c0.2-0.1,0.4-0.3,0.4-0.6l1-13.2c0-0.4-0.2-0.7-0.6-0.8h-0.1H21.5l-0.2-3.6h13.4C35,16.6,35.3,16.3,35.3,15.9z"/>
			<path class="st0" d="M34.1,12.4v2.8H20.7c-0.3,0-0.6,0.4-0.6,0.8l0.2,5c0,0.4,0.3,0.7,0.6,0.7h12.6l-0.9,12l-6.7,3.1l-7.2-2.6
				v-4.1h2.4v1.5c0,0.3,0.2,0.6,0.4,0.7l3.9,1.4c0.1,0,0.3,0,0.4,0l3.8-1.8c0.2-0.1,0.4-0.3,0.4-0.6l0.7-6.1c0-0.4-0.3-0.7-0.6-0.7
				H18l-0.6-12.1H34.1z"/>
		</g>
		<g>
		</g>
	</g>
</g>
</svg>
