<svg xmlns="http://www.w3.org/2000/svg" viewBox="0 0 63.61 89.78"><defs><style>.cls-1{fill:#e54f26;}</style></defs><g id="Livello_2" data-name="Livello 2"><g id="Capa_1" data-name="Capa 1"><path class="cls-1" d="M5.92,0H10V4h3.7V0h4V12.11h-4V8.05H10v4.06H5.92V0Z"/><path class="cls-1" d="M23,4H19.47V0H30.65V4H27.08v8.09H23V4Z"/><path class="cls-1" d="M32.42,0h4.22l2.6,4.25L41.83,0h4.22V12.11H42v-6l-2.78,4.3h-.07l-2.79-4.3v6h-4Z"/><path class="cls-1" d="M48.06,0h4V8.11H57.8v4H48.06Z"/><path class="cls-1" d="M0,17.64,5.79,82.57l26,7.21,26-7.22,5.8-64.92ZM51.53,33.05l-.36,4L51,38.88H20.54L21.27,47h29l-.2,2.14-1.87,21-.12,1.34L31.8,76h0L15.46,71.48,14.34,59h8l.57,6.35,8.87,2.4h0l8.88-2.39L41.58,55H14l-2-22-.19-2.13H51.73Z"/></g></g></svg>