<?xml version="1.0" encoding="utf-8"?>
<!-- Generator: Adobe Illustrator 25.0.0, SVG Export Plug-In . SVG Version: 6.00 Build 0)  -->
<svg version="1.1" id="Livello_1" xmlns="http://www.w3.org/2000/svg" xmlns:xlink="http://www.w3.org/1999/xlink" x="0px" y="0px"
	 viewBox="0 0 16 16" style="enable-background:new 0 0 16 16;" xml:space="preserve">
<style type="text/css">
	.st0{fill:#FFFFFF;}
</style>
<path class="st0" d="M13.1,4.2c0.5,0,0.8,0.3,0.8,0.6v7.1c0,0.3-0.4,0.6-0.8,0.6H2.9c-0.5,0-0.8-0.3-0.8-0.6V4.8
	c0-0.3,0.4-0.6,0.8-0.6H13.1z M2.9,3.6C2,3.6,1.2,4.1,1.2,4.8v7.1C1.2,12.5,2,13,2.9,13h10.1c0.9,0,1.7-0.5,1.7-1.2V4.8
	c0-0.7-0.8-1.2-1.7-1.2H2.9z"/>
<path class="st0" d="M9,7.4L7.1,7.6L7,7.8l0.4,0c0.2,0,0.3,0.1,0.2,0.3l-0.6,2C6.8,10.7,7.1,11,7.7,11c0.5,0,1-0.1,1.2-0.4L9,10.4
	c-0.2,0.1-0.4,0.1-0.6,0.1c-0.2,0-0.3-0.1-0.3-0.3L9,7.4z M9.1,6.2c0,0.3-0.4,0.6-0.8,0.6S7.4,6.5,7.4,6.2s0.4-0.6,0.8-0.6
	S9.1,5.9,9.1,6.2z"/>
</svg>
