<?xml version="1.0" encoding="utf-8"?>
<!-- Generator: Adobe Illustrator 25.0.0, SVG Export Plug-In . SVG Version: 6.00 Build 0)  -->
<svg version="1.1" id="Livello_1" xmlns="http://www.w3.org/2000/svg" xmlns:xlink="http://www.w3.org/1999/xlink" x="0px" y="0px"
	 viewBox="0 0 90 90" style="enable-background:new 0 0 90 90;" xml:space="preserve">
<style type="text/css">
	.st0{fill:#C13584;}
</style>
<path class="st0" d="M45,0C20.2,0,0.1,20.2,0.1,45S20.2,90,45,90s44.9-20.2,44.9-45S69.8,0,45,0z M33.5,13.8h23
	c10.8,0,19.6,8.8,19.6,19.6v23.1c0,10.8-8.8,19.6-19.6,19.6h-23c-10.8,0-19.6-8.8-19.6-19.6v-23C13.9,22.6,22.7,13.8,33.5,13.8z
	 M33.5,20.8c-7,0-12.7,5.7-12.7,12.7v23.1c0,7,5.7,12.7,12.7,12.7h23c7,0,12.7-5.7,12.7-12.7V33.5c0-7-5.7-12.7-12.7-12.7H33.5z
	 M61.1,26.5c1.3,0,2.3,1,2.3,2.3s-1,2.3-2.3,2.3s-2.3-1-2.3-2.3C58.8,27.6,59.9,26.5,61.1,26.5z M45,27.7c9.5,0,17.3,7.8,17.3,17.3
	S54.5,62.3,45,62.3S27.7,54.5,27.7,45S35.5,27.7,45,27.7z M45,34.6c-5.7,0-10.4,4.6-10.4,10.4S39.3,55.4,45,55.4S55.4,50.7,55.4,45
	S50.7,34.6,45,34.6z"/>
</svg>
