<svg xmlns="http://www.w3.org/2000/svg" viewBox="0 0 73.74 99.7"><defs><style>.cls-1{fill:#f3272b;}.cls-2{fill:#0e70b8;}</style></defs><g id="Livello_2" data-name="Livello 2"><g id="Capa_1" data-name="Capa 1"><path class="cls-1" d="M36.76,54.32a92.75,92.75,0,0,1-8.18-8.17,24.55,24.55,0,0,1-3.85-5.81,8.87,8.87,0,0,1,1.08-9.68,35.32,35.32,0,0,1,5.78-5.75c2.53-2.06,5.11-4.08,7.64-6.15.83-.68,1.59-1.43,2.36-2.17C46.27,12,48.62,6.71,47,0c.5.17.64.54.82.84a12.09,12.09,0,0,1,1,10.83c-1.52,4.41-4.46,7.84-7.76,11-1.52,1.46-3.18,2.76-4.81,4.1a26,26,0,0,0-5.34,5.74,10.43,10.43,0,0,0-.69,10.89A40,40,0,0,0,33.65,49a39.27,39.27,0,0,1,2.79,4.32c.16.3.46.57.3,1Z"/><path class="cls-2" d="M67.63,85.46c.84-.14,1.25.47,1.58,1a1.39,1.39,0,0,1-.33,1.7A8.27,8.27,0,0,1,66,90.08,44.11,44.11,0,0,1,55.71,93a141.5,141.5,0,0,1-33.59,1.63,165,165,0,0,1-17.75-2,10.51,10.51,0,0,1-3.06-.92c-1.56-.79-1.73-1.84-.5-3.06A9.16,9.16,0,0,1,3.13,87a26.12,26.12,0,0,1,9.46-2.75,6.06,6.06,0,0,1,3.23.44c-1.12.18-2.05.28-3,.47a18.07,18.07,0,0,0-5.46,2c-.49.29-1.1.61-1,1.29s.7.81,1.2,1a33.19,33.19,0,0,0,8.9,1.94,176.82,176.82,0,0,0,41.19-.79,36.36,36.36,0,0,0,7.57-1.69,6.15,6.15,0,0,0,2.27-1.28,1.41,1.41,0,0,0,.1-2.2Z"/><path class="cls-1" d="M58.84,20.29a2.06,2.06,0,0,1-1,.75,83.08,83.08,0,0,0-9.43,6.34,22.22,22.22,0,0,0-4.24,4.26A6.47,6.47,0,0,0,43.72,39a42.29,42.29,0,0,0,3,4.44c2.3,3.22,2.27,6.21-.1,9.38a18.78,18.78,0,0,1-4.82,4.33c-.22.14-.44.29-.72.14.33-.43.68-.85,1-1.3a6.4,6.4,0,0,0-.4-8.39,24.37,24.37,0,0,1-3.1-4.46A10.61,10.61,0,0,1,40,30.61a24.3,24.3,0,0,1,6.4-5.15,54.82,54.82,0,0,1,11.78-5Z"/><path class="cls-2" d="M56.94,58.82c-2.68,2.26-5.93,2.73-9.15,3.23a125.21,125.21,0,0,1-30.7,1A28.51,28.51,0,0,1,10,61.65c-.77-.27-1.79-.48-1.86-1.47S9,58.86,9.76,58.49a36.72,36.72,0,0,1,14.15-3.78c.3,0,.59,0,.88,0a5.3,5.3,0,0,1,.53.07c-1.4.4-2.57.73-3.73,1.08a27,27,0,0,0-5,1.9,7,7,0,0,0-.74.46c-.89.69-.84,1.27.21,1.68a17.7,17.7,0,0,0,5.72,1,160.88,160.88,0,0,0,25-.87c3-.31,5.91-.72,8.85-1.19A2.89,2.89,0,0,1,56.94,58.82Z"/><path class="cls-2" d="M52.68,81.79a37.86,37.86,0,0,1-8,2.5,45,45,0,0,1-20-.27,12.5,12.5,0,0,1-4.43-1.92c-1.68-1.23-1.64-2.55.1-3.68a10.73,10.73,0,0,1,2.91-1.24c-.09.58-.75.89-.44,1.45a2.1,2.1,0,0,0,1.53.93,47.15,47.15,0,0,0,8.38.93,56.61,56.61,0,0,0,13.61-1.23,2.26,2.26,0,0,1,1.74.29A37,37,0,0,0,52.68,81.79Z"/><path class="cls-2" d="M20.93,66.23c.05.29-.16.37-.27.51-1.06,1.34-.81,2.2.84,2.73a23.48,23.48,0,0,0,5.28.72,80.53,80.53,0,0,0,22.71-1.41,1.53,1.53,0,0,1,1.49.36,12.67,12.67,0,0,0,3.41,2,49.41,49.41,0,0,1-6.3,1.56,74.38,74.38,0,0,1-22.82,1A23.17,23.17,0,0,1,18.14,72c-1-.44-2.07-.89-2.11-2.16s1-1.73,1.89-2.26A12.4,12.4,0,0,1,20.93,66.23Z"/><path class="cls-2" d="M13.69,97a164.38,164.38,0,0,0,21.25,1.13c10-.1,19.86-.88,29.55-3.38,1.22-.32,2.42-.71,3.61-1.13a14.57,14.57,0,0,0,5.5-3,3.59,3.59,0,0,1-1.33,2.65,12.66,12.66,0,0,1-4.13,2.5A49.06,49.06,0,0,1,55.79,98.6a150.32,150.32,0,0,1-31,.56,42.24,42.24,0,0,1-9.65-1.67C14.64,97.34,14.17,97.14,13.69,97Z"/><path class="cls-2" d="M58.09,73.27c.19-.5.61-.59.94-.77A30.91,30.91,0,0,0,66.62,67a11.43,11.43,0,0,0,2.44-3.59,5.57,5.57,0,0,0-.71-6,6.23,6.23,0,0,0-6.16-2.25c-.6.1-1.19.28-1.92.46a2.06,2.06,0,0,1,1.19-1,9.87,9.87,0,0,1,8.63.39,6.72,6.72,0,0,1,2.82,9.25,12.74,12.74,0,0,1-4.14,4.55C66.09,70.65,60.67,73,58.09,73.27Z"/><path class="cls-1" d="M36.74,54.3l0,0,0,0Z"/><path class="cls-2" d="M67.62,85.43l.07,0c0-.08,0-.07,0,0Z"/></g></g></svg>