<svg xmlns="http://www.w3.org/2000/svg" viewBox="0 0 65.08 91.61"><defs><style>.cls-1{fill:#e7a020;}</style></defs><g id="Livello_2" data-name="Livello 2"><g id="Capa_1" data-name="Capa 1"><path class="cls-1" d="M32.54,18H0L6.1,84.11l26.44,7.5L59,84.11,65.08,18Zm16.65,54.9L32.54,77.58,15.89,72.85,14.71,60.18h8.23l.54,6.34,9.06,2.61,8.92-2.57.92-10.48h-28l-.05.15,2.29-24.77H49.58l1.81,13h-8.3l-.31-4.74H23.32L23,48H51.49Z"/><polygon class="cls-1" points="26.21 8.2 20.42 8.2 20.42 12.35 26.21 12.35 29.31 12.35 30.36 12.35 30.36 0 26.21 0 26.21 8.2"/><path class="cls-1" d="M44.66.06H34.57V4.39c1.35,1.35,2,2,4,4h-4v3.95H44.66V8.34l-4-3.95h4Z"/></g></g></svg>