<svg id="Livello_1" data-name="Livello 1" xmlns="http://www.w3.org/2000/svg" viewBox="0 0 90 89.57"><defs><style>.cls-1{fill:#686867;}.cls-2{fill:#c6c6c6;}</style></defs><path class="cls-1" d="M90,45.25A45,45,0,1,0,37.9,89.78V58.2L64,58l.2-13.55-26.2.8v-10C38,24,44.7,17.75,55,17.75a68.64,68.64,0,0,1,10.1.9l-6.5-3.89-8-6.17c-5.6,0-24.4,35.46-24.4,39.05l25.9-2.39L37.6,57.8l.3,32H52.1A45.16,45.16,0,0,0,90,45.25" transform="translate(0 -0.22)"/><g id="Livello_2" data-name="Livello 2"><g id="Capa_1" data-name="Capa 1"><path class="cls-2" d="M44.6,10.11,14,21.67l4.67,43L44.6,79.89,70.88,64.45l5.11-43ZM57.78,63.29,53.6,53H36.55L32.69,63.13l-7.11.16,19-45,20,45.13Z" transform="translate(0 -0.22)"/><polygon class="cls-2" points="44.62 46.75 44.94 46.75 51.11 46.75 44.67 32.46 39 46.75 44.62 46.75"/></g></g></svg>