<svg id="Livello_1" data-name="Livello 1" xmlns="http://www.w3.org/2000/svg" viewBox="0 0 90 89.57"><defs><style>.cls-1{fill:#686867;}.cls-2{fill:#c6c6c6;}</style></defs><path class="cls-1" d="M90,45.25A45,45,0,1,0,37.9,89.78V58.2L64,58l.2-13.55-26.2.8v-10C38,24,44.7,17.75,55,17.75a68.64,68.64,0,0,1,10.1.9l-6.5-3.89-8-6.17c-5.6,0-24.4,35.46-24.4,39.05l25.9-2.39L37.6,57.8l.3,32H52.1A45.16,45.16,0,0,0,90,45.25" transform="translate(0 -0.22)"/><g id="Livello_2" data-name="Livello 2"><g id="Capa_1" data-name="Capa 1"><path id="path2999" class="cls-2" d="M29.81,4.76h8.68V8.38H33.43V12h5.06V15.6H29.81Z" transform="translate(0 -0.22)"/><path id="path3001" class="cls-2" d="M40.22,4.76h8.69V7.91h-5v.62h5v7.23H40.22v-3.3h5.06v-.62H40.22Z" transform="translate(0 -0.22)"/><path id="path3003" class="cls-2" d="M50.64,4.76h8.69V7.91h-5v.62h5v7.23H50.64v-3.3h5.08v-.62H50.64Z" transform="translate(0 -0.22)"/><path class="cls-2" d="M16.32,20.58l5.26,58.19L45,85.24l23.45-6.48,5.26-58.18ZM61.6,46.92l-.17,1.91-1.69,18.8-.11,1.21L45,72.88h0l-14.72-4-1-11.21h7.22L37,63.32l8,2.14h0l8-2.15.88-9.25H28.91l-.64-7.14H54.39l.65-7.3H27.63L27,32.48H62.87Z" transform="translate(0 -0.22)"/></g></g></svg>