<svg id="Livello_1" data-name="Livello 1" xmlns="http://www.w3.org/2000/svg" viewBox="0 0 90 89.57"><defs><style>.cls-1{fill:#686867;}.cls-2{fill:#c6c6c6;}</style></defs><path class="cls-1" d="M90,45.25A45,45,0,1,0,37.9,89.78V58.2L64,58l.2-13.55-26.2.8v-10C38,24,44.7,17.75,55,17.75a68.64,68.64,0,0,1,10.1.9l-6.5-3.89-8-6.17c-5.6,0-24.4,35.46-24.4,39.05l25.9-2.39L37.6,57.8l.3,32H52.1A45.16,45.16,0,0,0,90,45.25" transform="translate(0 -0.22)"/><g id="Livello_2" data-name="Livello 2"><g id="Capa_1" data-name="Capa 1"><path class="cls-2" d="M23.11,6.31h3.45V9.82h3.13V6.31h3.39V17H29.69V13.39H26.56V17H23.11Z" transform="translate(0 -0.22)"/><path class="cls-2" d="M37.56,9.82h-3V6.31H44V9.82H41v7.12H37.56Z" transform="translate(0 -0.22)"/><path class="cls-2" d="M45.53,6.31H49.1L51.3,10l2.19-3.73h3.57V17H53.63V11.68l-2.35,3.78h-.06l-2.36-3.78V17H45.48Z" transform="translate(0 -0.22)"/><path class="cls-2" d="M58.76,6.31h3.38v7.13H67V17H58.76Z" transform="translate(0 -0.22)"/><path class="cls-2" d="M18.1,20.22,23,77.35l22,6.34,22-6.35L71.9,20.22ZM61.7,33.78l-.31,3.52-.14,1.61H35.48l.62,7.15H60.63l-.17,1.88L58.88,66.42l-.1,1.17L45,71.57h0l-13.82-4-.95-11H37l.48,5.59L45,64.31h0l7.51-2.1.78-9.12H30l-1.7-19.35-.16-1.88H61.86Z" transform="translate(0 -0.22)"/></g></g></svg>