<svg id="Livello_1" data-name="Livello 1" xmlns="http://www.w3.org/2000/svg" viewBox="0 0 90 89.57"><defs><style>.cls-1{fill:#686867;}.cls-2{fill:#c6c6c6;}</style></defs><path class="cls-1" d="M90,45.25A45,45,0,1,0,37.9,89.78V58.2L64,58l.2-13.55-26.2.8v-10C38,24,44.7,17.75,55,17.75a68.64,68.64,0,0,1,10.1.9l-6.5-3.89-8-6.17c-5.6,0-24.4,35.46-24.4,39.05l25.9-2.39L37.6,57.8l.3,32H52.1A45.16,45.16,0,0,0,90,45.25" transform="translate(0 -0.22)"/><g id="Livello_2" data-name="Livello 2"><g id="Capa_1" data-name="Capa 1"><path class="cls-2" d="M45,20.81H16.73L22,78.33l23,6.52,23-6.52,5.28-57.52ZM59.47,68.57,45,72.65,30.53,68.53l-1-11h7.15L37.13,63,45,65.29l7.75-2.23.8-9.12H29.22l0,.13,2-21.55H59.8l1.58,11.31H54.17l-.27-4.12H37l-.28,7.2H61.46Z" transform="translate(0 -0.22)"/><polygon class="cls-2" points="39.5 12.06 34.47 12.06 34.47 15.68 39.5 15.68 42.19 15.68 43.11 15.68 43.11 4.93 39.5 4.93 39.5 12.06"/><path class="cls-2" d="M55.53,5.2H46.76V9l3.48,3.48H46.76v3.43h8.77V12.4L52.05,9h3.48Z" transform="translate(0 -0.22)"/></g></g></svg>