<svg id="Livello_1" data-name="Livello 1" xmlns="http://www.w3.org/2000/svg" viewBox="0 0 90 89.57"><defs><style>.cls-1{fill:#686867;}.cls-2{fill:#c6c6c6;}</style></defs><path class="cls-1" d="M90,45.25A45,45,0,1,0,37.9,89.78V58.2L64,58l.2-13.55-26.2.8v-10C38,24,44.7,17.75,55,17.75a68.64,68.64,0,0,1,10.1.9l-6.5-3.89-8-6.17c-5.6,0-24.4,35.46-24.4,39.05l25.9-2.39L37.6,57.8l.3,32H52.1A45.16,45.16,0,0,0,90,45.25" transform="translate(0 -0.22)"/><g id="Livello_2" data-name="Livello 2"><g id="Capa_1" data-name="Capa 1"><path class="cls-2" d="M44.54,70.23a1.45,1.45,0,0,1-.76-.21l-2.44-1.45c-.37-.21-.19-.28-.07-.33a5.42,5.42,0,0,0,1.09-.51.19.19,0,0,1,.18,0l1.86,1.13a.22.22,0,0,0,.22,0l7.27-4.3a.21.21,0,0,0,.11-.2V55.78a.26.26,0,0,0-.11-.21l-7.24-4.29a.22.22,0,0,0-.22,0l-7.24,4.29a.24.24,0,0,0-.12.21v8.58a.26.26,0,0,0,.11.2l2,1.18c1.08.55,1.74-.1,1.74-.76V56.54a.21.21,0,0,1,.2-.22H42a.21.21,0,0,1,.21.22V65a2,2,0,0,1-2.14,2.32,3,3,0,0,1-1.67-.47l-1.9-1.12a1.59,1.59,0,0,1-.77-1.34v-8.6a1.59,1.59,0,0,1,.77-1.34l7.25-4.3a1.58,1.58,0,0,1,1.52,0l7.24,4.3a1.59,1.59,0,0,1,.77,1.34v8.58a1.59,1.59,0,0,1-.77,1.34L45.3,70a1.36,1.36,0,0,1-.76.2" transform="translate(0 -0.22)"/><path class="cls-2" d="M46.78,64.32c-3.17,0-3.84-1.5-3.84-2.75a.22.22,0,0,1,.21-.22h.94a.2.2,0,0,1,.2.18c.14,1,.57,1.48,2.48,1.48C48.3,63,49,62.65,49,61.82c0-.48-.19-.83-2.56-1.07-2-.2-3.21-.67-3.21-2.28s1.23-2.4,3.3-2.4c2.32,0,3.47.83,3.62,2.6a.24.24,0,0,1-.06.17.2.2,0,0,1-.16.07h-.94a.21.21,0,0,1-.2-.16c-.23-1-.77-1.34-2.26-1.34-1.67,0-1.86.6-1.86,1s.22.71,2.48,1,3.25.73,3.25,2.34-1.3,2.55-3.61,2.55m8.85-9.15h.24a.22.22,0,0,0,.24-.19v0c0-.22-.15-.22-.23-.22h-.25Zm-.29-.67h.53c.19,0,.55,0,.55.43a.36.36,0,0,1-.3.39c.22,0,.23.16.27.37a1.54,1.54,0,0,0,.07.42h-.33c0-.07-.06-.48-.06-.51a.13.13,0,0,0-.15-.13H55.6v.67h-.3Zm-.65.8a1.17,1.17,0,1,0,2.34,0,1.19,1.19,0,0,0-1.17-1.21h0a1.17,1.17,0,0,0-1.16,1.19h0m2.56,0a1.4,1.4,0,1,1-1.39-1.47,1.41,1.41,0,0,1,1.39,1.43h0" transform="translate(0 -0.22)"/><path class="cls-2" d="M22.1,36.64a1,1,0,0,0-.46-.83L14,31.27a.94.94,0,0,0-.42-.13h-.08a.94.94,0,0,0-.43.13L5.35,35.81a1,1,0,0,0-.46.83V48.86a.47.47,0,0,0,.22.42.49.49,0,0,0,.47,0l4.55-2.68a1,1,0,0,0,.47-.83V40.05a1,1,0,0,1,.46-.83L13,38.07a.85.85,0,0,1,.47-.12.93.93,0,0,1,.46.12l2,1.15a1,1,0,0,1,.47.83v5.71a1,1,0,0,0,.46.83l4.56,2.67a.44.44,0,0,0,.63-.17.48.48,0,0,0,.07-.24ZM58.35,43a.24.24,0,0,1-.12.21l-2.6,1.56a.25.25,0,0,1-.24,0l-2.6-1.56a.26.26,0,0,1-.12-.21V39.87a.3.3,0,0,1,.12-.21l2.6-1.56a.25.25,0,0,1,.24,0l2.6,1.56a.27.27,0,0,1,.12.21Zm.71-23.17a.46.46,0,0,0-.69.41V32.35a.37.37,0,0,1-.16.3.36.36,0,0,1-.32,0l-2-1.15a1,1,0,0,0-.93,0l-7.66,4.56a.94.94,0,0,0-.46.82V46a1,1,0,0,0,.46.83L55,51.37a.89.89,0,0,0,.92,0l7.69-4.55a1,1,0,0,0,.47-.83V23.27a1,1,0,0,0-.48-.83Zm25.59,20a.94.94,0,0,0,.46-.82V36.76a1,1,0,0,0-.46-.83L77,31.38a.91.91,0,0,0-.93,0L68.4,35.93a1,1,0,0,0-.46.83v9.08a1,1,0,0,0,.47.83L76,51.19a.92.92,0,0,0,.91,0l4.62-2.68a.48.48,0,0,0,.18-.64.52.52,0,0,0-.18-.18l-7.73-4.52a.5.5,0,0,1-.23-.42V39.88a.44.44,0,0,1,.23-.41l2.4-1.42a.44.44,0,0,1,.47,0l2.4,1.42a.47.47,0,0,1,.24.41v2.25a.45.45,0,0,0,.23.41.43.43,0,0,0,.46,0Z" transform="translate(0 -0.22)"/><path class="cls-2" d="M76.44,39.36a.17.17,0,0,1,.17,0l1.48.88a.21.21,0,0,1,.09.15v1.75a.17.17,0,0,1-.09.16l-1.48.87a.17.17,0,0,1-.17,0L75,42.3a.22.22,0,0,1-.09-.16V40.39a.19.19,0,0,1,.09-.15Z" transform="translate(0 -0.22)"/><path class="cls-2" d="M34,31.43,26.36,36a1,1,0,0,0-.46.83v9.06a1,1,0,0,0,.46.82L34,51.19a1,1,0,0,0,.93,0l7.64-4.53a1,1,0,0,0,.46-.82V36.78A1,1,0,0,0,42.6,36L35,31.43a.85.85,0,0,0-.47-.13.84.84,0,0,0-.46.13" transform="translate(0 -0.22)"/></g></g></svg>