<svg id="Livello_1" data-name="Livello 1" xmlns="http://www.w3.org/2000/svg" viewBox="0 0 90 89.57"><defs><style>.cls-1{fill:#686867;}.cls-2{fill:#c6c6c6;}</style></defs><path class="cls-1" d="M90,45.25A45,45,0,1,0,37.9,89.78V58.2L64,58l.2-13.55-26.2.8v-10C38,24,44.7,17.75,55,17.75a68.64,68.64,0,0,1,10.1.9l-6.5-3.89-8-6.17c-5.6,0-24.4,35.46-24.4,39.05l25.9-2.39L37.6,57.8l.3,32H52.1A45.16,45.16,0,0,0,90,45.25" transform="translate(0 -0.22)"/><g id="Livello_2" data-name="Livello 2"><g id="Capa_1" data-name="Capa 1"><path class="cls-2" d="M8,61.3c.83-1.37.83-2.93,1.16-4.39,1.53-6.94,3-13.88,4.44-20.82C13.8,35.32,14.1,35,15,35c3.24.07,6.47,0,9.71,0a10.4,10.4,0,0,1,5.35,1.24A6.33,6.33,0,0,1,33.43,42,12.84,12.84,0,0,1,28.3,53a11.81,11.81,0,0,1-6.9,2c-1.73.1-3.48.07-5.22,0-.69,0-1,.15-1.11.83-.35,1.87-.83,3.73-1.17,5.61-.12.62-.36.77-1,.77-1.61,0-3.23,0-4.85,0Zm13.2-21.95c-.5,0-1.22.09-1.95.09-.51,0-.7.17-.79.62q-1,5-2.14,10c-.12.57,0,.81.7.8a27.25,27.25,0,0,0,6.37-.6,3.87,3.87,0,0,0,2.49-1.68,10.28,10.28,0,0,0,1.6-6.67,2.2,2.2,0,0,0-1.8-2A24.9,24.9,0,0,0,21.24,39.35Z" transform="translate(0 -0.22)"/><path class="cls-2" d="M56.62,62.2c1.88-8.83,3.75-17.55,5.6-26.26.14-.67.46-.88,1.21-.87,3.27,0,6.55,0,9.83,0a13.17,13.17,0,0,1,3.48.37,6.56,6.56,0,0,1,5.18,6.07,13.08,13.08,0,0,1-2,8.07,11.29,11.29,0,0,1-10,5.39H64.6c-.65,0-.88.16-1,.77-.33,1.84-.83,3.66-1.16,5.49-.13.77-.46,1-1.25.94C59.73,62.17,58.23,62.2,56.62,62.2ZM67.29,50.78a12.26,12.26,0,0,0,1.82-.09c2.21-.27,4.49-.44,5.62-2.66a10.87,10.87,0,0,0,1.3-6,2.31,2.31,0,0,0-2-2.23,23,23,0,0,0-6.36-.42c-.51,0-.54.28-.62.64-.61,2.9-1.27,5.79-1.89,8.68C64.69,51,64.71,51,67.29,50.78Z" transform="translate(0 -0.22)"/><path class="cls-2" d="M45.41,27.79C44.93,30,44.5,32,44,34.1c-.19.77,0,1,.89,1,2.62,0,5.27-.26,7.84.46,3,.84,4.36,2.61,3.8,5.49-.86,4.47-1.89,9-2.79,13.44-.09.46-.3.53-.72.53H47.91c.69-3.16,1.37-6.25,2-9.35.26-1.21.56-2.41.71-3.63.2-1.6-.56-2.43-2.29-2.53s-3.23,0-4.86-.07c-.65,0-.67.32-.76.78-1,4.65-2.06,9.34-3.07,14-.12.6-.3.77-1,.77-1.3-.06-2.59-.06-3.89,0-.83,0-.9-.27-.76-.91C35,49.65,36,45.17,37,40.71c.83-4,1.76-8,2.58-12,.18-.75.48-.94,1.28-.94C42.32,27.85,43.83,27.79,45.41,27.79Z" transform="translate(0 -0.22)"/></g></g></svg>