<?xml version="1.0" encoding="utf-8"?>
<!-- Generator: Adobe Illustrator 25.0.0, SVG Export Plug-In . SVG Version: 6.00 Build 0)  -->
<svg version="1.1" id="Livello_1" xmlns="http://www.w3.org/2000/svg" xmlns:xlink="http://www.w3.org/1999/xlink" x="0px" y="0px"
	 viewBox="0 0 90 90" style="enable-background:new 0 0 90 90;" xml:space="preserve">
<style type="text/css">
	.st0{fill:#0E76A8;stroke:#0E76A8;stroke-miterlimit:10;}
	.st1{fill:#FFFFFF;}
</style>
<ellipse class="st0" cx="45" cy="45" rx="44.5" ry="44.5"/>
<path class="st1" d="M22.1,31.9h9.6V68h-9.6V31.9z M26.9,27.1L26.9,27.1c-2.9,0-4.8-2.1-4.8-4.8s1.9-4.8,4.8-4.8s4.7,2.1,4.8,4.8
	C31.7,24.9,29.8,27.1,26.9,27.1z M72.6,45.1c0-7.3-5.9-13.3-13.2-13.3c-4.5,0-8.4,2.2-10.8,5.7v-5.7H39V68h9.6V48.7
	c0-4,3.2-7.2,7.2-7.2s7.2,3.2,7.2,7.2V68h9.6C72.6,68,72.6,46.1,72.6,45.1z"/>
</svg>
