<svg xmlns="http://www.w3.org/2000/svg" viewBox="0 0 123.26 75.49"><defs><style>.cls-1{fill:#87c540;}.cls-2{fill:#585858;}</style></defs><g id="Livello_2" data-name="Livello 2"><g id="Capa_1" data-name="Capa 1"><path class="cls-1" d="M60.92,75.49a2.41,2.41,0,0,1-1.17-.31L56,73c-.56-.31-.29-.42-.1-.49a7.91,7.91,0,0,0,1.68-.76.26.26,0,0,1,.27,0l2.86,1.69a.34.34,0,0,0,.34,0L72.22,67a.32.32,0,0,0,.17-.3V53.87a.36.36,0,0,0-.17-.31L61.09,47.14a.34.34,0,0,0-.34,0L49.63,53.56a.35.35,0,0,0-.18.31V66.71a.36.36,0,0,0,.17.3l3.05,1.76c1.66.83,2.67-.15,2.67-1.13V55a.32.32,0,0,1,.32-.32h1.41a.32.32,0,0,1,.32.32V67.65c0,2.2-1.2,3.47-3.29,3.47a4.76,4.76,0,0,1-2.57-.7l-2.92-1.68a2.36,2.36,0,0,1-1.17-2V53.87a2.34,2.34,0,0,1,1.17-2l11.14-6.43a2.43,2.43,0,0,1,2.34,0l11.13,6.43a2.35,2.35,0,0,1,1.17,2V66.71a2.35,2.35,0,0,1-1.17,2L62.09,75.17a2.28,2.28,0,0,1-1.17.31"/><path class="cls-1" d="M64.36,66.64c-4.87,0-5.89-2.24-5.89-4.11a.32.32,0,0,1,.32-.32h1.44a.3.3,0,0,1,.31.27c.22,1.46.87,2.2,3.81,2.2,2.35,0,3.35-.53,3.35-1.77,0-.72-.29-1.25-3.93-1.61-3.05-.3-4.93-1-4.93-3.41,0-2.24,1.89-3.58,5.07-3.58,3.56,0,5.33,1.24,5.55,3.89a.31.31,0,0,1-.09.25.32.32,0,0,1-.24.11H67.69a.32.32,0,0,1-.31-.25c-.35-1.55-1.19-2-3.48-2-2.56,0-2.86.89-2.86,1.56s.35,1.05,3.81,1.51,5,1.09,5,3.5-2,3.81-5.55,3.81M77.9,53h.37a.33.33,0,0,0,.37-.34c0-.33-.23-.33-.35-.33H77.9ZM77.45,52h.82c.29,0,.85,0,.85.64a.55.55,0,0,1-.46.59c.33,0,.35.24.4.55a2.52,2.52,0,0,0,.12.63h-.51c0-.11-.09-.72-.09-.76a.22.22,0,0,0-.25-.2h-.42v1h-.46Zm-1,1.2a1.8,1.8,0,1,0,1.79-1.79,1.79,1.79,0,0,0-1.79,1.79m3.94,0A2.15,2.15,0,1,1,78.25,51a2.14,2.14,0,0,1,2.14,2.15"/><path class="cls-2" d="M26.45,25.23A1.44,1.44,0,0,0,25.74,24L13.94,17.2a1.4,1.4,0,0,0-.65-.19h-.12a1.43,1.43,0,0,0-.66.19L.71,24A1.44,1.44,0,0,0,0,25.23L0,43.52a.72.72,0,0,0,.35.62.7.7,0,0,0,.71,0l7-4a1.44,1.44,0,0,0,.72-1.24V30.34a1.44,1.44,0,0,1,.71-1.24l3-1.72a1.38,1.38,0,0,1,.71-.19,1.4,1.4,0,0,1,.71.19l3,1.72a1.45,1.45,0,0,1,.72,1.24v8.54a1.45,1.45,0,0,0,.71,1.24l7,4a.71.71,0,0,0,1.07-.61Zm55.69,9.52a.35.35,0,0,1-.18.31l-4,2.34a.38.38,0,0,1-.36,0l-4-2.34a.35.35,0,0,1-.18-.31V30.07a.37.37,0,0,1,.18-.31l4-2.34a.38.38,0,0,1,.36,0l4,2.34a.37.37,0,0,1,.18.31ZM83.23.09a.7.7,0,0,0-.7,0,.71.71,0,0,0-.36.61V18.82a.51.51,0,0,1-.24.44.5.5,0,0,1-.5,0l-3-1.71a1.44,1.44,0,0,0-1.42,0L65.24,24.37a1.41,1.41,0,0,0-.71,1.23V39.23a1.41,1.41,0,0,0,.71,1.23l11.81,6.82a1.44,1.44,0,0,0,1.42,0l11.81-6.82A1.42,1.42,0,0,0,91,39.23v-34A1.43,1.43,0,0,0,90.26,4ZM122.55,30a1.44,1.44,0,0,0,.71-1.23V25.41a1.46,1.46,0,0,0-.71-1.23l-11.73-6.81a1.41,1.41,0,0,0-1.43,0L97.58,24.18a1.44,1.44,0,0,0-.71,1.24V39a1.44,1.44,0,0,0,.72,1.24L109.32,47a1.43,1.43,0,0,0,1.4,0L117.81,43a.71.71,0,0,0,0-1.24L105.94,35a.73.73,0,0,1-.36-.62V30.09a.7.7,0,0,1,.36-.62l3.69-2.13a.7.7,0,0,1,.71,0l3.7,2.13a.72.72,0,0,1,.36.62v3.36a.69.69,0,0,0,.35.61.71.71,0,0,0,.72,0Z"/><path class="cls-1" d="M109.93,29.31a.26.26,0,0,1,.27,0l2.27,1.31a.28.28,0,0,1,.13.23v2.62a.28.28,0,0,1-.13.24L110.2,35a.26.26,0,0,1-.27,0l-2.27-1.3a.29.29,0,0,1-.14-.24V30.85a.29.29,0,0,1,.14-.23Z"/><path class="cls-1" d="M44.78,17.44,33,24.21a1.44,1.44,0,0,0-.71,1.23V39A1.41,1.41,0,0,0,33,40.23L44.78,47a1.44,1.44,0,0,0,1.42,0l11.74-6.78A1.41,1.41,0,0,0,58.65,39V25.44a1.44,1.44,0,0,0-.71-1.23L46.2,17.44a1.4,1.4,0,0,0-.71-.19,1.38,1.38,0,0,0-.71.19"/></g></g></svg>