<svg xmlns="http://www.w3.org/2000/svg" viewBox="0 0 88.82 44.67"><defs><style>.cls-1{fill:#6182b8;}</style></defs><g id="Livello_2" data-name="Livello 2"><g id="Capa_1" data-name="Capa 1"><path class="cls-1" d="M0,43.46c1-1.77,1-3.79,1.39-5.69,1.84-9,3.59-18,5.34-27,.19-1,.55-1.4,1.68-1.38,3.89.09,7.78,0,11.67,0A11.9,11.9,0,0,1,26.51,11a8.35,8.35,0,0,1,4,7.48c.08,5.62-1.77,10.46-6.17,14.16-2.4,2-5.31,2.5-8.29,2.66-2.08.12-4.18.08-6.27,0-.83,0-1.19.19-1.33,1.07-.42,2.43-1,4.84-1.41,7.28-.14.8-.43,1-1.22,1-1.94-.06-3.89,0-5.83,0ZM15.86,15c-.6,0-1.47.12-2.34.11-.62,0-.84.23-.95.81Q11.3,22.36,10,28.83c-.15.74,0,1.06.84,1.05a30.74,30.74,0,0,0,7.65-.78,4.67,4.67,0,0,0,3-2.19,14.27,14.27,0,0,0,1.92-8.65,2.79,2.79,0,0,0-2.17-2.59A28.4,28.4,0,0,0,15.86,15Z"/><path class="cls-1" d="M58.37,44.64c2.26-11.46,4.51-22.77,6.73-34.07.17-.87.56-1.14,1.46-1.13,3.93.06,7.87,0,11.81,0a15.08,15.08,0,0,1,4.18.48,8.38,8.38,0,0,1,6.23,7.88,18.05,18.05,0,0,1-2.4,10.46,13.35,13.35,0,0,1-12,7c-2.14,0-4.28,0-6.42,0-.78,0-1.06.2-1.2,1-.4,2.38-1,4.74-1.39,7.12-.16,1-.55,1.27-1.51,1.22C62.11,44.59,60.31,44.64,58.37,44.64ZM71.2,29.82c.73,0,1.46,0,2.18-.12,2.66-.34,5.4-.57,6.76-3.45a15.16,15.16,0,0,0,1.56-7.74,2.92,2.92,0,0,0-2.4-2.89,25.89,25.89,0,0,0-7.65-.55c-.61,0-.65.37-.74.84-.74,3.76-1.53,7.5-2.27,11.25C68.07,30.07,68.1,30.08,71.2,29.82Z"/><path class="cls-1" d="M44.9,0c-.57,2.8-1.09,5.5-1.69,8.19-.23,1,0,1.28,1.07,1.29,3.15,0,6.33-.33,9.42.6,3.64,1.09,5.24,3.39,4.57,7.12C57.23,23,56,28.83,54.91,34.64c-.11.59-.36.68-.86.68H47.91c.83-4.1,1.64-8.11,2.43-12.12.31-1.57.67-3.13.85-4.72.24-2.07-.67-3.15-2.75-3.27s-3.89,0-5.84-.09c-.78,0-.81.41-.92,1C40.47,22.16,39.21,28.24,38,34.33c-.15.78-.37,1-1.16,1a45.47,45.47,0,0,0-4.67,0c-1,.06-1.09-.35-.92-1.18,1.19-5.79,2.34-11.6,3.51-17.39,1-5.18,2.12-10.35,3.1-15.54C38.08.25,38.44,0,39.4,0,41.19.08,43,0,44.9,0Z"/></g></g></svg>