<svg xmlns="http://www.w3.org/2000/svg" viewBox="0 0 80.34 80.33"><defs><style>.cls-1{fill:#585858;}</style></defs><g id="Livello_2" data-name="Livello 2"><g id="Capa_1" data-name="Capa 1"><path class="cls-1" d="M40.39,80.33A40.11,40.11,0,0,0,80.33,39.25,40.17,40.17,0,1,0,0,41.61,39.91,39.91,0,0,0,40.39,80.33Zm10.69-5.49a33.89,33.89,0,0,1-9.6,1.71,38,38,0,0,1-11-1.28c-.71-.22-.88-.53-.64-1.21.93-2.55,1.83-5.1,2.72-7.66q2.69-7.67,5.34-15.35c.81-2.33,1.64-4.66,2.47-7,.08-.24.07-.62.36-.65s.38.39.48.65c1,2.77,2,5.55,3,8.33q3,8.32,6,16.64l1.59,4.51C52.07,74.43,52,74.56,51.08,74.84ZM71.25,33.37a29.88,29.88,0,0,0,.84-6.85A22.7,22.7,0,0,0,72,23.64c0-.22-.16-.55.13-.63s.34.28.44.48A36.38,36.38,0,0,1,76,46.25a36.32,36.32,0,0,1-12,21.35,34.82,34.82,0,0,1-5.07,3.7c-.19.12-.4.38-.63.2s-.05-.45,0-.66c1.84-5.18,3.7-10.35,5.53-15.54,1.58-4.48,3.1-9,4.68-13.47A76.22,76.22,0,0,0,71.25,33.37ZM10.46,19.26a38,38,0,0,1,5.23-5.89,36.45,36.45,0,0,1,21.5-9.46,29.11,29.11,0,0,1,3.1-.13A35.83,35.83,0,0,1,64.1,12.67c.21.18.56.34.45.68s-.45.21-.7.23c-4,.36-6.5,4.36-5.11,8.86a21.07,21.07,0,0,0,2.49,4.89C63.48,30.92,65,34.73,64.74,39a29.07,29.07,0,0,1-1.81,8.39c-1.34,3.72-2.44,7.52-3.59,11.31-.27.89-.53,1.78-.81,2.67-.09.25-.07.68-.45.65s-.29-.4-.37-.64c-1.41-4.29-2.81-8.59-4.23-12.88q-4-12.23-8-24.45c-.34-1-.26-1.11.83-1.18s2.07-.14,3.09-.28a1.27,1.27,0,0,0,1.26-1.37A1.35,1.35,0,0,0,49.17,20c-1,0-2,.08-2.94.17A85.68,85.68,0,0,1,31.12,20a8.38,8.38,0,0,0-1.12,0c-.87,0-1.36.44-1.42,1.19a1.27,1.27,0,0,0,1.21,1.48c1,.14,2.06.23,3.09.32a1,1,0,0,1,1,.75Q36.45,30.83,39,38a1.88,1.88,0,0,1,0,1.32q-3.75,11.09-7.48,22.19c-.1.29-.08.77-.43.78s-.42-.49-.51-.79q-2.37-7.2-4.71-14.39-3.75-11.45-7.52-22.87C18,23,18,23,19.19,22.84c.87-.1,1.75-.15,2.62-.24,1.07-.1,1.67-.66,1.61-1.48s-.74-1.31-1.81-1.24c-3.42.23-6.84.45-10.27.36-.13,0-.27,0-.4,0s-.58.05-.73-.21S10.3,19.49,10.46,19.26ZM3.86,38.69A35.31,35.31,0,0,1,6.8,25.87c.08-.19.11-.41.33-.52.31,0,.32.32.4.53L9.87,32.4q4,11.13,8,22.27c1.83,5.1,3.64,10.2,5.47,15.3.18.5.41,1,.57,1.49s.52.85.16,1.16-.73-.14-1.07-.32A36.54,36.54,0,0,1,7.84,56.85,36,36,0,0,1,3.86,38.69Z"/></g></g></svg>